<?xml version="1.0" standalone="no"?>
<!DOCTYPE svg PUBLIC "-//W3C//DTD SVG 20010904//EN"
 "http://www.w3.org/TR/2001/REC-SVG-20010904/DTD/svg10.dtd">
<svg version="1.0" xmlns="http://www.w3.org/2000/svg"
 width="298.000000pt" height="290.000000pt" viewBox="0 0 298.000000 290.000000"
 preserveAspectRatio="xMidYMid meet">
<g transform="translate(0.000000,290.000000) scale(0.100000,-0.100000)"
fill="#000000" stroke="none">
<path d="M1019 2127 c-24 -13 -53 -39 -64 -58 -19 -33 -20 -51 -20 -599 0
-633 -3 -609 72 -660 l37 -25 555 -3 c490 -2 561 -1 598 13 56 22 100 73 108
127 3 24 5 284 3 578 -3 516 -4 536 -23 570 -12 21 -39 44 -65 58 l-44 22
-557 0 -556 0 -44 -23z m1163 -28 c26 -7 46 -22 63 -47 l25 -36 -3 -563 -2
-563 -30 -25 c-16 -14 -46 -29 -65 -35 -24 -8 -208 -10 -570 -8 -575 3 -565 2
-605 56 -19 26 -20 45 -23 571 -3 557 -1 582 35 619 40 42 45 42 603 42 340 0
549 -4 572 -11z"/>
<path d="M1563 2005 c-13 -9 -23 -13 -23 -9 0 4 -10 -6 -22 -22 -12 -16 -27
-32 -33 -36 -6 -5 -6 -8 0 -8 6 0 1 -7 -9 -15 -11 -8 -16 -15 -10 -15 5 0 -16
-15 -48 -33 -31 -17 -72 -46 -91 -64 -19 -17 -38 -29 -41 -26 -3 4 -6 2 -6 -3
0 -5 -9 -10 -20 -11 -11 -1 -18 1 -16 5 3 4 -4 8 -14 8 -10 0 -16 -4 -13 -10
4 -5 -4 -6 -19 -3 -40 10 -108 -71 -108 -128 0 -64 61 -123 135 -130 38 -3
115 39 115 63 0 7 4 11 8 8 4 -2 9 10 10 27 3 41 25 73 65 97 18 10 40 26 49
36 10 10 21 14 25 11 3 -4 14 -1 22 7 14 12 25 13 60 4 36 -9 53 -8 96 6 51
18 52 18 93 -3 23 -12 48 -21 57 -21 9 0 13 -4 10 -10 -3 -5 1 -10 10 -10 14
0 38 -39 39 -65 1 -5 11 -21 23 -34 24 -27 18 -45 -17 -54 -14 -4 -20 0 -20
12 0 30 -35 52 -103 64 -50 8 -71 8 -95 -2 -35 -15 -44 -33 -44 -95 0 -56 -11
-76 -28 -49 -11 18 -22 19 -98 16 -69 -3 -89 -8 -102 -23 -9 -11 -21 -16 -25
-12 -5 4 -6 0 -2 -10 3 -9 2 -29 -3 -45 -4 -15 -9 -21 -9 -12 -1 9 -12 22 -26
29 -28 15 -88 16 -93 1 -2 -6 -12 -7 -27 -1 -20 8 -23 6 -18 -7 5 -12 2 -15
-10 -10 -11 4 -26 -3 -43 -20 -25 -25 -25 -26 -22 -162 3 -135 4 -138 30 -163
15 -13 59 -35 97 -48 l70 -24 23 27 c30 34 34 34 41 -1 4 -18 16 -33 34 -41
38 -18 163 -27 163 -12 0 6 7 11 15 11 8 0 15 7 15 15 0 9 6 12 15 9 8 -4 15
-12 15 -19 0 -18 23 -25 83 -25 74 0 126 17 139 45 5 12 15 22 22 20 27 -5 45
-18 40 -26 -9 -15 44 0 118 33 93 42 95 47 93 270 -1 101 -5 191 -9 200 -4 9
-23 26 -43 38 l-35 20 50 48 c47 45 49 49 46 96 -3 40 -9 56 -36 83 -17 18
-39 33 -47 33 -14 0 -14 1 -1 10 14 9 -68 5 -97 -5 -7 -2 -13 1 -13 8 0 8 -3
8 -9 -2 -6 -9 -11 -10 -15 -2 -4 6 -29 21 -57 32 -27 12 -49 26 -49 31 0 6 -7
7 -16 4 -9 -3 -25 1 -37 9 -12 8 -18 15 -15 15 4 0 -12 19 -35 43 -36 37 -49
43 -87 45 -28 2 -53 -3 -67 -13z m116 -42 c13 -8 28 -28 34 -43 8 -22 25 -33
81 -55 39 -15 88 -39 110 -52 32 -21 43 -23 63 -14 39 18 71 13 105 -18 27
-24 33 -36 33 -70 0 -118 -170 -135 -192 -19 -8 43 -9 44 -105 91 l-98 48 -27
-20 c-43 -31 -73 -34 -115 -13 l-36 19 -89 -59 c-112 -75 -117 -80 -119 -125
-1 -27 -9 -43 -33 -65 -41 -37 -88 -38 -130 -2 -43 35 -44 98 -4 139 25 24 33
27 77 22 47 -4 52 -2 120 50 39 30 92 66 118 79 37 19 48 30 48 48 0 13 12 35
26 49 39 39 82 42 133 10z m149 -362 c9 -1 12 -66 12 -290 l0 -289 -22 -5
c-13 -3 -53 -9 -90 -12 l-68 -7 0 309 0 309 78 -8 c42 -3 83 -7 90 -7z m220
-76 l52 -24 0 -196 0 -196 -62 -29 c-35 -16 -75 -32 -90 -36 l-28 -6 0 262 0
262 38 -7 c20 -3 61 -17 90 -30z m-465 -279 l2 -246 -29 0 c-16 0 -57 5 -90
11 l-61 10 1 227 1 227 84 11 c46 5 85 9 87 9 1 -1 3 -113 5 -249z m-253 -9
c0 -107 -3 -196 -6 -199 -3 -3 -42 8 -87 26 l-82 32 -3 146 c-2 144 -2 146 20
151 13 3 46 12 73 20 92 28 85 42 85 -176z"/>
<path d="M1590 1905 c-15 -18 -10 -45 12 -59 14 -8 22 -6 40 11 21 22 21 23 3
43 -21 24 -38 25 -55 5z"/>
<path d="M1975 1719 c-10 -30 19 -53 47 -38 29 15 20 53 -14 57 -20 2 -28 -2
-33 -19z"/>
<path d="M1199 1654 c-17 -21 0 -49 32 -49 27 0 37 28 19 50 -16 19 -34 19
-51 -1z"/>
</g>
</svg>
